<svg id="Layer_1" xmlns="http://www.w3.org/2000/svg" viewBox="0 0 40 40">
    <defs>
        <style>.cls-1 {
            fill: white;
        }

        .cls-1, .cls-2, .cls-3 {
            stroke: white;
            stroke-miterlimit: 10;
        }

        .cls-2 {
            stroke-width: 2px;
        }

        .cls-2, .cls-3 {
            fill: none;
        }</style>
    </defs>
    <circle class="cls-2" cx="18.5" cy="23.5" r="11"></circle>
    <circle class="cls-2" cx="6.5" cy="12.5" r="3"></circle>
    <circle class="cls-2" cx="5" cy="36" r="3"></circle>
    <circle class="cls-2" cx="34.5" cy="9.5" r="3"></circle>
    <circle class="cls-2" cx="34" cy="34" r="5"></circle>
    <circle class="cls-2" cx="18.5" cy="5" r="4"></circle>
    <polyline class="cls-3" points="11.5 22 18.5 17.5 25.5 22"></polyline>
    <polygon class="cls-1" points="18.5 17.5 13.5 20.71 13.5 28.5 16.5 28.5 16.5 23.5 20.5 23.5 20.5 28.5 23.5 28.5 23.5 20.71 18.5 17.5"></polygon>
    <line class="cls-2" x1="8.71" y1="14.52" x2="10.25" y2="15.92"></line>
    <line class="cls-2" x1="32.18" y1="11.4" x2="26.74" y2="16.21"></line>
    <line class="cls-2" x1="30.4" y1="31.64" x2="27.58" y2="29.71"></line>
    <line class="cls-2" x1="6.62" y1="34.38" x2="10.39" y2="30.93"></line>
    <line class="cls-2" x1="18.5" y1="9" x2="18.5" y2="12.5"></line>
</svg>